<svg xmlns="http://www.w3.org/2000/svg" version="1.1" xmlns:xlink="http://www.w3.org/1999/xlink" width="512" height="512" x="0" y="0" viewBox="0 0 512 512" style="enable-background:new 0 0 512 512" xml:space="preserve" class="">
  <g>
    <circle cx="256" cy="256" r="256" fill="#1b4242" opacity="1" data-original="#ff5a54" class=""></circle>
    <g fill-rule="evenodd">
      <path fill="#092635" d="M497.5 341.1q-.969 2.748-2 5.469l-.009.025q-1.65 4.359-3.453 8.641l-.041.1q-.9 2.132-1.833 4.243l-.005.011a255.953 255.953 0 0 1-32.464 54.069l.006.006q-2.358 3.012-4.807 5.948l-.434.517-.157.188-.157.187-.015.017a257.3 257.3 0 0 1-32.744 32.564l-.006-.006-.144.12-.062.051-.133.111-.685.564-.337.276-.342.279-.091.074a256.61 256.61 0 0 1-21.912 16.01l-.04.027c-.51.338-1.02.675-1.535 1l-.008-.008q-4.74 3.043-9.619 5.881l-.012-.011q-5.965 3.468-12.132 6.62l.02.017a254.487 254.487 0 0 1-35.185 14.764l-.011-.01a253.867 253.867 0 0 1-32.5 8.517L173.079 394.245l1.94 1.526 2.013 1.434 2.083 1.339 2.148 1.239 2.212 1.137 2.271 1.031 2.329.922 2.381.81 2.43.694 2.477.576 2.521.453 2.56.328 2.6.2 2.629.067h26.637l-40.592-35.947-.722-.69-.69-.723-.655-.755-.618-.786-.581-.815-.542-.843-.5-.871-.46-.895-.418-.921-.374-.942-.327-.965-.282-.984-.233-1-.183-1.02L185 356.8l-.08-1.052-.027-1.066v-36.166l-.02-.783-.058-.772-.1-.762-.136-.75-.17-.737-.208-.723-.24-.708-.274-.692-.308-.676-.338-.658-.368-.639-.4-.62-.426-.6-.455-.577-.481-.555-.507-.53-.53-.507L287.36 406h18.97l1.413-.036-86.694-80.792.494.424.51.395.525.365.54.337.553.306.564.278.575.248.583.22.591.189.6.161.606.132.608.1.614.073.614.044.617.014.616-.014.616-.044.612-.073.61-.1.6-.132.6-.161.592-.19.584-.219.574-.248.564-.278.552-.307.54-.336.525-.366.511-.394.495-.424.281-.268-62.053-58.504.466.4.485.381.5.359.52.334.538.31.552.284.568.258.582.23.595.2.608.173.619.144.63.113.64.082.648.05.658.017h46.2l-72.434-70.6.531.506.555.48.577.455.6.426.62.4.639.369.658.339.676.306.691.274.709.242.724.206.737.171.749.135.762.1.772.059.784.02.782-.02.772-.059.762-.1.75-.135.737-.171.723-.206.708-.242.692-.274.676-.306.658-.339.639-.368.62-.4.6-.426.577-.455.555-.48.53-.506.507-.531.481-.555.453-.577.428-.6.4-.619.368-.64.338-.657.308-.676.274-.693.24-.709.208-.722.17-.737.135-.751.1-.761.058-.773.02-.782v-31.037l.027-1.065.083-1.051.134-1.037.183-1.021.233-1 .282-.984.327-.964.374-.943.418-.919.46-.9.5-.871.542-.844.581-.815.618-.786.655-.755.69-.722.722-.689.755-.655.786-.619.815-.58.844-.542.87-.5.9-.46.92-.418.943-.373.964-.328.984-.281 1-.234 1.021-.183 1.036-.133 1.053-.081 1.064-.027H306.33l1.064.027 1.053.081 1.037.133 1.021.183 1 .234.984.281.965.328.942.373.92.418.9.46.87.5.844.542.815.58.786.619.755.655.722.689.69.722 35.948 40.439v-26.48l-.068-2.631-.2-2.6-.327-2.561-.454-2.52-.576-2.478-.694-2.431-.809-2.38-.923-2.328-1.031-2.272-1.137-2.211-1.24-2.149-1.338-2.082-1.434-2.014-1.526-1.94 160.324 185.566a254.08 254.08 0 0 1-8.724 30.8l.006.008zm-276.929-16.38" opacity="1" data-original="#db3a3c" class=""></path>
      <path fill="#ffffff" d="M357.645 354.685V157.316A51.467 51.467 0 0 0 306.329 106H205.672a51.467 51.467 0 0 0-51.316 51.316v31.038a15.266 15.266 0 1 0 30.532 0v-31.038a20.845 20.845 0 0 1 20.784-20.784h100.657a20.845 20.845 0 0 1 20.784 20.784v197.369a20.845 20.845 0 0 1-20.784 20.783H205.672a20.845 20.845 0 0 1-20.784-20.783v-36.169a15.266 15.266 0 1 0-30.532 0v36.169A51.466 51.466 0 0 0 205.672 406h100.657a51.466 51.466 0 0 0 51.316-51.315zM294 269.43l-55.289 55.289a12.827 12.827 0 0 1-18.14-18.14l36.842-36.842h-72.338a12.827 12.827 0 1 1 0-25.654h72.339l-36.842-36.842a12.827 12.827 0 1 1 18.14-18.14l55.265 55.265c8.123 8.426 7.05 18.034.023 25.064z" opacity="1" data-original="#ffffff"></path>
    </g>
  </g>
</svg>