<svg xmlns="http://www.w3.org/2000/svg" version="1.1" xmlns:xlink="http://www.w3.org/1999/xlink" width="512" height="512" x="0" y="0" viewBox="0 0 512 512" style="enable-background:new 0 0 512 512" xml:space="preserve" class="">
  <g>
    <linearGradient id="a" x1="256" x2="256" y1="512" y2="37.5" gradientUnits="userSpaceOnUse">
      <stop stop-opacity="1" stop-color="#092635" offset="0"></stop>
      <stop stop-opacity="1" stop-color="#5c8374" offset="1"></stop>
    </linearGradient>
    <linearGradient id="b" x1="256" x2="256" y1="512" y2="0" gradientUnits="userSpaceOnUse">
      <stop stop-opacity="1" stop-color="#9ec8b9" offset="0"></stop>
      <stop stop-opacity="1" stop-color="#e8f2ee" offset="1"></stop>
    </linearGradient>
    <path fill="url(#a)" d="M256 105 0 136v331c0 24.898 20.099 45 45 45h362l105-105V136zm150-7.5c16.553 0 30-13.462 30-30s-13.447-30-30-30-30 13.462-30 30 13.447 30 30 30zm-300 0c16.553 0 30-13.462 30-30s-13.447-30-30-30-30 13.462-30 30 13.447 30 30 30z" opacity="1" data-original="url(#a)"></path>
    <path fill="url(#b)" d="M407 437v75c3.9 0 7.8-1.5 10.499-4.501l90-90C510.5 414.8 512 410.9 512 407h-75c-16.5 0-30 13.5-30 30zM106 241h300c8.291 0 15-6.709 15-15s-6.709-15-15-15H106c-8.291 0-15 6.709-15 15s6.709 15 15 15zm0 60h300c8.291 0 15-6.709 15-15s-6.709-15-15-15H106c-8.291 0-15 6.709-15 15s6.709 15 15 15zm315 45c0-8.291-6.709-15-15-15H106c-8.291 0-15 6.709-15 15s6.709 15 15 15h300c8.291 0 15-6.709 15-15zM467 0H45C20.099 0 0 20.1 0 45v91h512V45c0-24.9-20.099-45-45-45zM106 82.5c-8.284 0-15-6.716-15-15 0-8.286 6.716-15 15-15s15 6.714 15 15c0 8.284-6.716 15-15 15zm300 0c-8.284 0-15-6.716-15-15 0-8.286 6.716-15 15-15s15 6.714 15 15c0 8.284-6.716 15-15 15z" opacity="1" data-original="url(#b)" class=""></path>
  </g>
</svg>